<svg width="86" height="20" viewBox="0 0 86 20" fill="none" xmlns="http://www.w3.org/2000/svg">
<path d="M76.9628 18.3809V10.3515C76.9628 10.1838 77.023 10.0419 77.1434 9.92581C77.2638 9.80972 77.4078 9.75168 77.5755 9.75168H85.0115C85.1792 9.75168 85.3211 9.81187 85.4372 9.93226C85.5576 10.0526 85.6178 10.1967 85.6178 10.3644V10.9706C85.6178 11.1383 85.5576 11.2823 85.4372 11.4027C85.3211 11.5188 85.1792 11.5768 85.0115 11.5768H79.3942V13.4536H84.2312C84.3988 13.4536 84.5407 13.5138 84.6568 13.6342C84.7772 13.7503 84.8374 13.8921 84.8374 14.0598V14.6661C84.8374 14.8337 84.7772 14.9778 84.6568 15.0982C84.5407 15.2142 84.3988 15.2723 84.2312 15.2723H79.3942V17.1748H84.9986C85.162 17.1748 85.3017 17.2329 85.4178 17.349C85.5339 17.4651 85.592 17.6069 85.592 17.7746V18.3938C85.592 18.5614 85.5318 18.7055 85.4114 18.8259C85.291 18.9419 85.147 19 84.9793 19H77.5755C77.4078 19 77.2638 18.9419 77.1434 18.8259C77.023 18.7055 76.9628 18.5571 76.9628 18.3809Z" fill="black"/>
<path d="M69.6624 19.0516C68.235 19.0516 67.1386 18.6668 66.3733 17.8972C65.6123 17.1276 65.2318 15.9516 65.2318 14.3694C65.2318 12.7829 65.6295 11.6091 66.4249 10.8481C67.2246 10.0828 68.422 9.7001 70.0171 9.7001H71.4553C72.4055 9.7001 73.2611 9.92798 74.0222 10.3837C74.7875 10.8352 75.1701 11.4006 75.1701 12.0799C75.1701 12.3336 75.0949 12.5163 74.9444 12.6281C74.7939 12.7356 74.6477 12.7893 74.5059 12.7893H73.7384C73.3686 12.7893 73.0741 12.5786 72.8548 12.1573C72.6356 11.7359 72.0938 11.5253 71.2296 11.5253H70.0816C69.14 11.5253 68.5015 11.7273 68.1662 12.1315C67.8308 12.5357 67.6631 13.2795 67.6631 14.363C67.6631 15.4464 67.8136 16.1967 68.1146 16.6138C68.4156 17.0265 68.953 17.2329 69.7269 17.2329H71.049C71.7413 17.2329 72.2357 17.1018 72.5324 16.8395C72.829 16.5729 72.9817 16.1924 72.9903 15.698H71.5327C71.365 15.698 71.221 15.6399 71.1006 15.5238C70.9845 15.4034 70.9265 15.2594 70.9265 15.0917V14.5887C70.9265 14.421 70.9845 14.2791 71.1006 14.163C71.221 14.0426 71.365 13.9824 71.5327 13.9824H74.7703C74.938 13.9824 75.0798 14.0426 75.1959 14.163C75.3163 14.2791 75.3765 14.421 75.3765 14.5887V15.3046C75.3765 16.5084 75.0154 17.435 74.293 18.0842C73.5707 18.7291 72.5109 19.0516 71.1135 19.0516H69.6624Z" fill="black"/>
<path d="M64.4194 18.7227C64.4194 18.9075 64.3098 19 64.0905 19H62.5426C62.3793 19 62.1987 18.9419 62.0009 18.8259C61.8074 18.7055 61.6591 18.5614 61.5559 18.3938L60.4595 16.6782C60.0081 15.9731 59.462 15.6206 58.8214 15.6206H57.2478V18.3938C57.2478 18.5614 57.1876 18.7055 57.0672 18.8259C56.9511 18.9419 56.8092 19 56.6415 19H55.4291C55.2614 19 55.1173 18.9419 54.997 18.8259C54.8766 18.7055 54.8164 18.5614 54.8164 18.3938V10.3644C54.8164 10.1967 54.8744 10.0526 54.9905 9.93226C55.1066 9.81187 55.2485 9.75168 55.4162 9.75168H60.7368C61.7214 9.75168 62.5276 10.0161 63.1553 10.5449C63.7874 11.0738 64.1034 11.7875 64.1034 12.6861C64.1034 13.9373 63.2929 14.7219 61.672 15.0401C61.93 15.1347 62.1686 15.2981 62.3879 15.5303C62.6071 15.7581 62.8587 16.0914 63.1424 16.5299L64.3162 18.3938C64.385 18.5141 64.4194 18.6238 64.4194 18.7227ZM57.2478 13.7954H59.9952C60.438 13.7954 60.8271 13.7073 61.1625 13.531C61.5022 13.3547 61.672 13.0731 61.672 12.6861C61.672 12.2992 61.5022 12.0175 61.1625 11.8413C60.8271 11.665 60.438 11.5768 59.9952 11.5768H57.2478V13.7954Z" fill="black"/>
<path d="M43.5368 15.3432V10.3644C43.5368 10.1967 43.5948 10.0526 43.7109 9.93226C43.8313 9.81187 43.9796 9.75168 44.1559 9.75168H45.3619C45.5253 9.75168 45.6672 9.81187 45.7876 9.93226C45.908 10.0526 45.9682 10.1967 45.9682 10.3644V15.3561C45.9682 15.9882 46.1058 16.459 46.3809 16.7685C46.6604 17.0781 47.0904 17.2329 47.6708 17.2329H48.7027C49.2831 17.2329 49.7109 17.0781 49.9861 16.7685C50.2656 16.459 50.4053 15.9882 50.4053 15.3561V10.3644C50.4053 10.1967 50.4633 10.0526 50.5794 9.93226C50.6998 9.81187 50.8438 9.75168 51.0115 9.75168H52.2111C52.3874 9.75168 52.5357 9.81187 52.6561 9.93226C52.7765 10.0526 52.8367 10.1967 52.8367 10.3644V15.3432C52.8367 16.5213 52.4906 17.435 51.7983 18.0842C51.1061 18.7291 50.0957 19.0516 48.7672 19.0516H47.6063C46.2734 19.0516 45.2609 18.7291 44.5687 18.0842C43.8807 17.435 43.5368 16.5213 43.5368 15.3432Z" fill="black"/>
<path d="M32.5797 16.6331C32.5797 16.3794 32.6549 16.1989 32.8054 16.0914C32.9559 15.9796 33.1021 15.9237 33.2439 15.9237H34.0114C34.3984 15.9237 34.6929 16.1344 34.895 16.5557C35.097 16.9771 35.5506 17.1878 36.2558 17.1878L38.513 17.2329C39.2697 17.2329 39.6481 16.9857 39.6481 16.4912C39.6481 16.1172 39.1859 15.8226 38.2615 15.6077C37.8487 15.5088 37.393 15.412 36.8943 15.3175C36.3955 15.2186 35.8989 15.096 35.4045 14.9498C34.9143 14.8037 34.4629 14.6317 34.0501 14.4339C33.6373 14.2361 33.302 13.9652 33.044 13.6213C32.7903 13.273 32.6635 12.8646 32.6635 12.3959C32.6635 11.5317 32.9709 10.8674 33.5858 10.4031C34.2006 9.93443 35.2583 9.7001 36.7588 9.7001L38.3969 9.7388C39.2783 9.7388 40.0716 9.96667 40.7767 10.4224C41.4862 10.8739 41.8409 11.4393 41.8409 12.1186C41.8409 12.3723 41.7656 12.555 41.6151 12.6668C41.4647 12.7786 41.3206 12.8345 41.183 12.8345H40.4156C40.0286 12.8345 39.7341 12.6238 39.532 12.2024C39.3299 11.7768 38.8763 11.564 38.1712 11.564L36.23 11.5253C35.4733 11.5253 35.0949 11.7725 35.0949 12.2669C35.0949 12.5378 35.3335 12.7592 35.8108 12.9312C36.2923 13.1032 36.8728 13.2558 37.5521 13.3891C38.2357 13.5181 38.9215 13.675 39.6094 13.8599C40.2973 14.0448 40.8799 14.3501 41.3572 14.7757C41.8387 15.1971 42.0795 15.7238 42.0795 16.3558C42.0795 17.22 41.7699 17.8864 41.1508 18.3551C40.536 18.8194 39.4804 19.0516 37.9842 19.0516L36.03 19.0129C35.1486 19.0129 34.3532 18.7872 33.6438 18.3357C32.9344 17.88 32.5797 17.3124 32.5797 16.6331Z" fill="black"/>
<path d="M78.1915 0.515348C78.1915 0.36563 78.2726 0.290771 78.4348 0.290771H79.3238C79.6762 0.290771 79.9476 0.43893 80.1379 0.735246L81.6538 3.06991L83.165 0.735246C83.3584 0.43893 83.6297 0.290771 83.9791 0.290771H84.8727C85.0318 0.290771 85.1113 0.36563 85.1113 0.515348C85.1113 0.583969 85.0864 0.657268 85.0365 0.735246L82.5334 4.60452V6.56956C82.5334 6.69121 82.4897 6.79414 82.4024 6.87836C82.3181 6.95945 82.2152 7 82.0936 7H81.214C81.0923 7 80.9878 6.95945 80.9005 6.87836C80.8132 6.79414 80.7695 6.69121 80.7695 6.56956V4.60452L78.2711 0.735246C78.2181 0.657268 78.1915 0.583969 78.1915 0.515348Z" fill="black"/>
<path d="M72.2311 6.56956V0.744604C72.2311 0.61672 72.2748 0.50911 72.3621 0.421775C72.4494 0.334439 72.5539 0.290771 72.6756 0.290771H73.5552C73.6768 0.290771 73.7797 0.334439 73.864 0.421775C73.9513 0.50911 73.995 0.61672 73.995 0.744604V5.67593H78.0701C78.1917 5.67593 78.2947 5.7196 78.3789 5.80694C78.4662 5.89427 78.5099 5.99876 78.5099 6.12041V6.5602C78.5099 6.68185 78.4662 6.78634 78.3789 6.87368C78.2947 6.95789 78.1917 7 78.0701 7H72.6756C72.5539 7 72.4494 6.95945 72.3621 6.87836C72.2748 6.79414 72.2311 6.69121 72.2311 6.56956Z" fill="black"/>
<path d="M68.9328 6.56956V0.735246C68.9328 0.6136 68.9765 0.50911 69.0638 0.421775C69.1511 0.334439 69.2556 0.290771 69.3773 0.290771H70.2475C70.3754 0.290771 70.4814 0.334439 70.5657 0.421775C70.653 0.50911 70.6967 0.6136 70.6967 0.735246V6.5602C70.6967 6.68185 70.6514 6.78634 70.561 6.87368C70.4736 6.95789 70.3692 7 70.2475 7H69.3773C69.2556 7 69.1511 6.95945 69.0638 6.87836C68.9765 6.79414 68.9328 6.69121 68.9328 6.56956Z" fill="black"/>
<path d="M60.1979 6.56956L61.3722 2.11546C61.6904 0.902119 62.7259 0.293891 64.4789 0.290771H67.0007C67.1161 0.290771 67.2112 0.334439 67.2861 0.421775C67.3641 0.50911 67.4031 0.610481 67.4031 0.725889V6.56956C67.4031 6.69121 67.3594 6.79414 67.2721 6.87836C67.1847 6.95945 67.0802 7 66.9586 7H66.079C65.9511 7 65.8451 6.95945 65.7608 6.87836C65.6798 6.79414 65.6392 6.68809 65.6392 6.5602V5.38118H62.3127L61.9992 6.5602C61.968 6.68809 61.8978 6.79414 61.7886 6.87836C61.6795 6.95945 61.5641 7 61.4424 7H60.5207C60.3991 7 60.3117 6.96569 60.2587 6.89707C60.2057 6.82533 60.1792 6.76295 60.1792 6.70992C60.1823 6.6569 60.1885 6.61011 60.1979 6.56956ZM62.6589 4.05711H65.6392V1.61484H64.3058C64.0063 1.61484 63.7443 1.70061 63.5198 1.87217C63.2983 2.0406 63.1486 2.26829 63.0706 2.55525L62.6589 4.05711Z" fill="black"/>
<path d="M52.6607 6.56956V0.744604C52.6607 0.61672 52.7044 0.50911 52.7917 0.421775C52.8791 0.334439 52.9836 0.290771 53.1052 0.290771H55.7206C57.0743 0.290771 58.0584 0.562135 58.6728 1.10486C59.2904 1.64447 59.5992 2.49287 59.5992 3.65006C59.5992 4.80414 59.2904 5.65098 58.6728 6.19059C58.0584 6.7302 57.0743 7 55.7206 7H53.1052C52.9836 7 52.8791 6.95945 52.7917 6.87836C52.7044 6.79414 52.6607 6.69121 52.6607 6.56956ZM54.4246 5.67593H55.6691C56.5082 5.67593 57.079 5.5231 57.3815 5.21742C57.6841 4.91175 57.8353 4.3893 57.8353 3.65006C57.8353 2.90771 57.6841 2.3837 57.3815 2.07803C57.079 1.76923 56.5082 1.61484 55.6691 1.61484H54.4246V5.67593Z" fill="black"/>
<path d="M42.3809 0.515348C42.3809 0.36563 42.462 0.290771 42.6242 0.290771H43.5132C43.8656 0.290771 44.137 0.43893 44.3272 0.735246L45.8431 3.06991L47.3544 0.735246C47.5477 0.43893 47.8191 0.290771 48.1684 0.290771H49.0621C49.2211 0.290771 49.3007 0.36563 49.3007 0.515348C49.3007 0.583969 49.2757 0.657268 49.2258 0.735246L46.7227 4.60452V6.56956C46.7227 6.69121 46.6791 6.79414 46.5917 6.87836C46.5075 6.95945 46.4046 7 46.2829 7H45.4033C45.2817 7 45.1772 6.95945 45.0899 6.87836C45.0025 6.79414 44.9589 6.69121 44.9589 6.56956V4.60452L42.4605 0.735246C42.4074 0.657268 42.3809 0.583969 42.3809 0.515348Z" fill="black"/>
<path d="M32.8553 6.55085V0.744604C32.8553 0.61672 32.8974 0.50911 32.9816 0.421775C33.0658 0.334439 33.1688 0.290771 33.2904 0.290771H35.1946C35.3163 0.290771 35.4317 0.334439 35.5409 0.421775C35.65 0.50911 35.7233 0.6136 35.7608 0.735246L37.141 4.73084L38.5212 0.735246C38.5586 0.6136 38.6319 0.50911 38.7411 0.421775C38.8503 0.334439 38.9657 0.290771 39.0873 0.290771H40.9915C41.1132 0.290771 41.2145 0.334439 41.2956 0.421775C41.3799 0.50911 41.422 0.61672 41.422 0.744604V6.55085C41.422 6.67873 41.3783 6.78634 41.291 6.87368C41.2068 6.95789 41.1038 7 40.9822 7H40.14C40.0184 7 39.9139 6.95789 39.8265 6.87368C39.7423 6.78634 39.7002 6.67873 39.7002 6.55085V1.97978L38.0486 6.57892C38.005 6.69433 37.9286 6.79414 37.8194 6.87836C37.7102 6.95945 37.5948 7 37.4732 7H36.8041C36.6825 7 36.5671 6.95945 36.4579 6.87836C36.3518 6.79414 36.2754 6.69433 36.2286 6.57892L34.5817 1.97978V6.55085C34.5817 6.67873 34.5381 6.78634 34.4507 6.87368C34.3665 6.95789 34.2636 7 34.1419 7H33.2998C33.1781 7 33.0736 6.95789 32.9863 6.87368C32.899 6.78634 32.8553 6.67873 32.8553 6.55085Z" fill="black"/>
<path fill-rule="evenodd" clip-rule="evenodd" d="M15.4386 0.571014C14.7639 0.571014 14.2169 1.11801 14.2169 1.79277C14.2169 2.46753 14.7639 3.01453 15.4386 3.01453H20.4859L11.8844 11.6161L9.19407 8.92579L8.35758 8.08929L7.49455 8.89838L0.386151 15.5625C-0.10611 16.024 -0.131051 16.7972 0.330444 17.2894C0.791938 17.7817 1.56511 17.8066 2.05737 17.3451L8.30274 11.4901L11.0204 14.2078L11.8844 15.0717L12.7483 14.2078L22.2138 4.74228V9.34544C22.2138 10.0202 22.7608 10.5672 23.4356 10.5672C24.1103 10.5672 24.6573 10.0202 24.6573 9.34544V1.79277V0.571014H23.4356H15.4386Z" fill="black"/>
</svg>
